<svg width="15" height="15" viewBox="0 0 15 15" fill="none" xmlns="http://www.w3.org/2000/svg">
<path d="M7.5 0C6.01664 0 4.56659 0.439867 3.33323 1.26398C2.09986 2.08809 1.13856 3.25943 0.570907 4.62987C0.00324963 6.00032 -0.145275 7.50832 0.144114 8.96318C0.433503 10.418 1.14781 11.7544 2.1967 12.8033C3.2456 13.8522 4.58197 14.5665 6.03682 14.8559C7.49168 15.1453 8.99968 14.9967 10.3701 14.4291C11.7406 13.8614 12.9119 12.9001 13.736 11.6668C14.5601 10.4334 15 8.98336 15 7.5C14.9979 5.51152 14.207 3.60509 12.801 2.19902C11.3949 0.79295 9.48848 0.00209987 7.5 0ZM7.5 13.8462C6.24485 13.8462 5.01789 13.474 3.97427 12.7766C2.93065 12.0793 2.11725 11.0882 1.63692 9.92857C1.1566 8.76896 1.03092 7.49296 1.27579 6.26193C1.52066 5.03089 2.12507 3.90012 3.01259 3.01259C3.90012 2.12507 5.0309 1.52065 6.26193 1.27579C7.49296 1.03092 8.76896 1.15659 9.92857 1.63692C11.0882 2.11724 12.0793 2.93065 12.7766 3.97426C13.474 5.01788 13.8462 6.24485 13.8462 7.5C13.8442 9.18252 13.175 10.7956 11.9853 11.9853C10.7956 13.175 9.18252 13.8442 7.5 13.8462ZM10.9615 7.5C10.9615 7.65301 10.9008 7.79975 10.7926 7.90795C10.6844 8.01614 10.5376 8.07692 10.3846 8.07692H8.07692V10.3846C8.07692 10.5376 8.01614 10.6844 7.90795 10.7926C7.79975 10.9008 7.65301 10.9615 7.5 10.9615C7.34699 10.9615 7.20025 10.9008 7.09206 10.7926C6.98386 10.6844 6.92308 10.5376 6.92308 10.3846V8.07692H4.61539C4.46238 8.07692 4.31563 8.01614 4.20744 7.90795C4.09925 7.79975 4.03846 7.65301 4.03846 7.5C4.03846 7.34699 4.09925 7.20025 4.20744 7.09205C4.31563 6.98386 4.46238 6.92308 4.61539 6.92308H6.92308V4.61538C6.92308 4.46237 6.98386 4.31563 7.09206 4.20744C7.20025 4.09924 7.34699 4.03846 7.5 4.03846C7.65301 4.03846 7.79975 4.09924 7.90795 4.20744C8.01614 4.31563 8.07692 4.46237 8.07692 4.61538V6.92308H10.3846C10.5376 6.92308 10.6844 6.98386 10.7926 7.09205C10.9008 7.20025 10.9615 7.34699 10.9615 7.5Z" fill="#D9D9D9"/>
</svg>
