<svg width="82" height="85" viewBox="0 0 82 85" fill="none" xmlns="http://www.w3.org/2000/svg">
<path d="M71.7958 75.7788L78.05 82M3 15.64V40.525C3 40.525 3 52.9675 32.1861 52.9675C61.3722 52.9675 61.3722 40.525 61.3722 40.525V15.64M53.0333 67.4838C53.0333 70.2337 54.1315 72.8711 56.0863 74.8156C58.0411 76.7601 60.6924 77.8525 63.4569 77.8525C66.2215 77.8525 68.8727 76.7601 70.8276 74.8156C72.7824 72.8711 73.8806 70.2337 73.8806 67.4838C73.8806 64.7338 72.7824 62.0965 70.8276 60.152C68.8727 58.2074 66.2215 57.115 63.4569 57.115C60.6924 57.115 58.0411 58.2074 56.0863 60.152C54.1315 62.0965 53.0333 64.7338 53.0333 67.4838Z" stroke="#4758F5" stroke-width="6" stroke-linecap="round" stroke-linejoin="round"/>
<path d="M32.23 78.05C3 78.05 3 65.5417 3 65.5417V40.525M32.23 3C61.46 3 61.46 15.5083 61.46 15.5083C61.46 15.5083 61.46 28.0167 32.23 28.0167C3 28.0167 3 15.5083 3 15.5083C3 15.5083 3 3 32.23 3Z" stroke="#4758F5" stroke-width="6" stroke-linecap="round" stroke-linejoin="round"/>
</svg>
