<svg width="15" height="15" viewBox="0 0 15 15" fill="none" xmlns="http://www.w3.org/2000/svg">
<path d="M10.2159 5.60048L8.31563 7.5L10.2159 9.39952C10.2695 9.45312 10.312 9.51675 10.341 9.58679C10.37 9.65682 10.3849 9.73189 10.3849 9.80769C10.3849 9.8835 10.37 9.95856 10.341 10.0286C10.312 10.0986 10.2695 10.1623 10.2159 10.2159C10.1623 10.2695 10.0986 10.312 10.0286 10.341C9.95856 10.37 9.8835 10.3849 9.80769 10.3849C9.73189 10.3849 9.65683 10.37 9.58679 10.341C9.51676 10.312 9.45312 10.2695 9.39952 10.2159L7.5 8.31562L5.60048 10.2159C5.54688 10.2695 5.48325 10.312 5.41321 10.341C5.34318 10.37 5.26811 10.3849 5.19231 10.3849C5.11651 10.3849 5.04144 10.37 4.97141 10.341C4.90137 10.312 4.83774 10.2695 4.78414 10.2159C4.73053 10.1623 4.68802 10.0986 4.65901 10.0286C4.63 9.95856 4.61507 9.8835 4.61507 9.80769C4.61507 9.73189 4.63 9.65682 4.65901 9.58679C4.68802 9.51675 4.73053 9.45312 4.78414 9.39952L6.68438 7.5L4.78414 5.60048C4.67588 5.49223 4.61507 5.3454 4.61507 5.19231C4.61507 5.03921 4.67588 4.89239 4.78414 4.78413C4.89239 4.67588 5.03922 4.61506 5.19231 4.61506C5.3454 4.61506 5.49223 4.67588 5.60048 4.78413L7.5 6.68437L9.39952 4.78413C9.45312 4.73053 9.51676 4.68801 9.58679 4.659C9.65683 4.62999 9.73189 4.61506 9.80769 4.61506C9.8835 4.61506 9.95856 4.62999 10.0286 4.659C10.0986 4.68801 10.1623 4.73053 10.2159 4.78413C10.2695 4.83774 10.312 4.90137 10.341 4.97141C10.37 5.04144 10.3849 5.1165 10.3849 5.19231C10.3849 5.26811 10.37 5.34317 10.341 5.41321C10.312 5.48324 10.2695 5.54688 10.2159 5.60048ZM15 7.5C15 8.98336 14.5601 10.4334 13.736 11.6668C12.9119 12.9001 11.7406 13.8614 10.3701 14.4291C8.99968 14.9968 7.49168 15.1453 6.03682 14.8559C4.58197 14.5665 3.2456 13.8522 2.1967 12.8033C1.14781 11.7544 0.433503 10.418 0.144114 8.96318C-0.145275 7.50832 0.00324965 6.00032 0.570907 4.62987C1.13856 3.25943 2.09986 2.08809 3.33323 1.26398C4.56659 0.439867 6.01664 0 7.5 0C9.48848 0.00209987 11.3949 0.79295 12.801 2.19902C14.2071 3.60509 14.9979 5.51152 15 7.5ZM13.8462 7.5C13.8462 6.24485 13.474 5.01788 12.7766 3.97426C12.0793 2.93065 11.0882 2.11724 9.92857 1.63692C8.76896 1.15659 7.49296 1.03092 6.26193 1.27579C5.0309 1.52065 3.90012 2.12507 3.01259 3.01259C2.12507 3.90012 1.52066 5.03089 1.27579 6.26193C1.03092 7.49296 1.1566 8.76896 1.63692 9.92857C2.11725 11.0882 2.93065 12.0793 3.97427 12.7766C5.01789 13.474 6.24485 13.8462 7.5 13.8462C9.18252 13.8442 10.7956 13.175 11.9853 11.9853C13.175 10.7956 13.8442 9.18252 13.8462 7.5Z" fill="#D9D9D9"/>
</svg>
