<svg width="15" height="17" viewBox="0 0 15 17" fill="none" xmlns="http://www.w3.org/2000/svg">
<path d="M14.375 7.81324V15.3132C14.375 15.7276 14.2104 16.1251 13.9174 16.4181C13.6243 16.7111 13.2269 16.8757 12.8125 16.8757H1.5625C1.1481 16.8757 0.750671 16.7111 0.457646 16.4181C0.16462 16.1251 0 15.7276 0 15.3132V7.81324C0 7.39884 0.16462 7.00141 0.457646 6.70838C0.750671 6.41536 1.1481 6.25074 1.5625 6.25074H3.4375C3.68614 6.25074 3.9246 6.34951 4.10041 6.52533C4.27623 6.70114 4.375 6.9396 4.375 7.18824C4.375 7.43688 4.27623 7.67534 4.10041 7.85115C3.9246 8.02697 3.68614 8.12574 3.4375 8.12574H1.875V15.0007H12.5V8.12574H10.9375C10.6889 8.12574 10.4504 8.02697 10.2746 7.85115C10.0988 7.67534 10 7.43688 10 7.18824C10 6.9396 10.0988 6.70114 10.2746 6.52533C10.4504 6.34951 10.6889 6.25074 10.9375 6.25074H12.8125C13.2269 6.25074 13.6243 6.41536 13.9174 6.70838C14.2104 7.00141 14.375 7.39884 14.375 7.81324ZM4.72578 4.72652L6.25 3.20386V9.68824C6.25 9.93688 6.34877 10.1753 6.52459 10.3512C6.7004 10.527 6.93886 10.6257 7.1875 10.6257C7.43614 10.6257 7.6746 10.527 7.85041 10.3512C8.02623 10.1753 8.125 9.93688 8.125 9.68824V3.20386L9.64922 4.72886C9.73642 4.81607 9.83995 4.88525 9.95389 4.93244C10.0678 4.97964 10.19 5.00393 10.3133 5.00393C10.4366 5.00393 10.5587 4.97964 10.6727 4.93244C10.7866 4.88525 10.8901 4.81607 10.9773 4.72886C11.0645 4.64166 11.1337 4.53813 11.1809 4.42419C11.2281 4.31025 11.2524 4.18813 11.2524 4.0648C11.2524 3.94147 11.2281 3.81935 11.1809 3.70541C11.1337 3.59147 11.0645 3.48795 10.9773 3.40074L7.85234 0.275739C7.76525 0.188339 7.66175 0.118992 7.5478 0.0716747C7.43384 0.0243571 7.31167 0 7.18828 0C7.06489 0 6.94272 0.0243571 6.82876 0.0716747C6.71481 0.118992 6.61132 0.188339 6.52422 0.275739L3.39922 3.40074C3.31201 3.48795 3.24284 3.59147 3.19564 3.70541C3.14845 3.81935 3.12415 3.94147 3.12415 4.0648C3.12415 4.31387 3.2231 4.55274 3.39922 4.72886C3.57534 4.90498 3.81421 5.00393 4.06328 5.00393C4.31235 5.00393 4.55122 4.90498 4.72734 4.72886L4.72578 4.72652Z" fill="white"/>
</svg>
