<svg width="21" height="21" viewBox="0 0 21 21" fill="none" xmlns="http://www.w3.org/2000/svg">
<path d="M17.6875 9.25001V16.75C17.6875 17.1644 17.5229 17.5618 17.2299 17.8549C16.9368 18.1479 16.5394 18.3125 16.125 18.3125H4.875C4.4606 18.3125 4.06317 18.1479 3.77015 17.8549C3.47712 17.5618 3.3125 17.1644 3.3125 16.75V9.25001C3.3125 8.83561 3.47712 8.43818 3.77015 8.14515C4.06317 7.85213 4.4606 7.68751 4.875 7.68751H6.75C6.99864 7.68751 7.2371 7.78628 7.41291 7.96209C7.58873 8.13791 7.6875 8.37637 7.6875 8.62501C7.6875 8.87365 7.58873 9.1121 7.41291 9.28792C7.2371 9.46373 6.99864 9.56251 6.75 9.56251H5.1875V16.4375H15.8125V9.56251H14.25C14.0014 9.56251 13.7629 9.46373 13.5871 9.28792C13.4113 9.1121 13.3125 8.87365 13.3125 8.62501C13.3125 8.37637 13.4113 8.13791 13.5871 7.96209C13.7629 7.78628 14.0014 7.68751 14.25 7.68751H16.125C16.5394 7.68751 16.9368 7.85213 17.2299 8.14515C17.5229 8.43818 17.6875 8.83561 17.6875 9.25001ZM8.03828 6.16329L9.5625 4.64063V11.125C9.5625 11.3736 9.66127 11.6121 9.83709 11.7879C10.0129 11.9637 10.2514 12.0625 10.5 12.0625C10.7486 12.0625 10.9871 11.9637 11.1629 11.7879C11.3387 11.6121 11.4375 11.3736 11.4375 11.125V4.64063L12.9617 6.16563C13.0489 6.25284 13.1525 6.32201 13.2664 6.36921C13.3803 6.4164 13.5025 6.4407 13.6258 6.4407C13.7491 6.4407 13.8712 6.4164 13.9852 6.36921C14.0991 6.32201 14.2026 6.25284 14.2898 6.16563C14.377 6.07843 14.4462 5.9749 14.4934 5.86096C14.5406 5.74702 14.5649 5.6249 14.5649 5.50157C14.5649 5.37824 14.5406 5.25612 14.4934 5.14218C14.4462 5.02824 14.377 4.92471 14.2898 4.83751L11.1648 1.71251C11.0777 1.62511 10.9743 1.55576 10.8603 1.50844C10.7463 1.46112 10.6242 1.43677 10.5008 1.43677C10.3774 1.43677 10.2552 1.46112 10.1413 1.50844C10.0273 1.55576 9.92382 1.62511 9.83672 1.71251L6.71172 4.83751C6.62451 4.92471 6.55534 5.02824 6.50814 5.14218C6.46095 5.25612 6.43665 5.37824 6.43665 5.50157C6.43665 5.75064 6.5356 5.98951 6.71172 6.16563C6.88784 6.34175 7.12671 6.4407 7.37578 6.4407C7.62485 6.4407 7.86372 6.34175 8.03984 6.16563L8.03828 6.16329Z" fill="#B6B6B6"/>
</svg>
