<svg width="19" height="20" viewBox="0 0 19 20" fill="none" xmlns="http://www.w3.org/2000/svg">
<path d="M6.44531 0.430664C6.44531 5.37879 3.77125 9.80566 0 9.80566C3.77125 9.80566 6.44531 14.2329 6.44531 19.1807C6.44531 14.2329 9.11938 9.80566 12.8906 9.80566C9.11938 9.80566 6.44531 5.37879 6.44531 0.430664ZM14.0625 9.80566C14.0625 12.28 12.7259 14.4932 10.8397 14.4932C12.7259 14.4932 14.0625 16.7069 14.0625 19.1807C14.0625 16.7069 15.3991 14.4932 17.2853 14.4932C15.3991 14.4932 14.0625 12.28 14.0625 9.80566ZM15.5275 0.430664C15.5275 2.90473 14.1909 5.11816 12.3047 5.11816C14.1906 5.11816 15.5275 7.33191 15.5275 9.80566C15.5275 7.33191 16.8641 5.11816 18.7503 5.11816C16.8641 5.11816 15.5275 2.90473 15.5275 0.430664Z" fill="white"/>
</svg>
