<svg width="20" height="20" viewBox="0 0 20 20" fill="none" xmlns="http://www.w3.org/2000/svg">
<path d="M6.94531 0.625C6.94531 5.57312 4.27125 10 0.5 10C4.27125 10 6.94531 14.4272 6.94531 19.375C6.94531 14.4272 9.61938 10 13.3906 10C9.61938 10 6.94531 5.57312 6.94531 0.625ZM14.5625 10C14.5625 12.4744 13.2259 14.6875 11.3397 14.6875C13.2259 14.6875 14.5625 16.9013 14.5625 19.375C14.5625 16.9013 15.8991 14.6875 17.7853 14.6875C15.8991 14.6875 14.5625 12.4744 14.5625 10ZM16.0275 0.625C16.0275 3.09906 14.6909 5.3125 12.8047 5.3125C14.6906 5.3125 16.0275 7.52625 16.0275 10C16.0275 7.52625 17.3641 5.3125 19.2503 5.3125C17.3641 5.3125 16.0275 3.09906 16.0275 0.625Z" fill="#4758F5"/>
</svg>
 